<svg width="800" height="577" viewBox="0 0 800 577" fill="none" xmlns="http://www.w3.org/2000/svg">
<path d="M0.0227047 0V483.792V483.814H0L92.9076 576.699H307.172L400.079 483.814H92.9076V0H0.0227047Z" fill="#8CC841"/>
<path d="M161.067 67.9098H191.627C216.239 67.9098 233.268 84.8021 233.268 106.871V107.098C233.268 129.144 216.262 146.264 191.627 146.264H161.067V67.9098ZM191.627 130.688C205.727 130.688 215.24 121.175 215.24 107.302V107.075C215.24 93.2028 205.727 83.4625 191.627 83.4625H178.3V130.688H191.627Z" fill="white"/>
<path d="M267.28 67.9098H326.358V83.2355H284.4V99.1287H321.317V114.454H284.4V130.915H326.926V146.241H267.28V67.9098Z" fill="white"/>
<path d="M386.57 83.8031H362.73V67.9098H427.643V83.8031H403.803V146.241H386.57V83.8031Z" fill="white"/>
<path d="M464.447 67.9098H500.252C510.22 67.9098 517.939 70.7025 523.093 75.8564C525.369 78.2351 527.144 81.0462 528.314 84.1232C529.484 87.2002 530.025 90.4807 529.905 93.7704V93.9975C530.155 99.3289 528.646 104.595 525.611 108.985C522.575 113.374 518.18 116.644 513.103 118.292L532.266 146.264H512.104L495.325 121.289H481.703V146.264H464.47L464.447 67.9098ZM499.14 105.963C507.541 105.963 512.354 101.422 512.354 94.883V94.6559C512.354 87.2769 507.2 83.4625 498.731 83.4625H481.612V105.963H499.14Z" fill="white"/>
<path d="M561.487 107.28V107.053C561.487 84.7794 579.06 66.5475 603.241 66.5475C627.421 66.5475 644.813 84.575 644.813 106.848V107.075C644.813 129.417 627.171 147.581 603.013 147.581C578.856 147.581 561.487 129.576 561.487 107.28ZM626.74 107.28V107.053C626.74 93.6342 616.886 82.4408 603.013 82.4408C589.141 82.4408 579.514 93.4071 579.514 106.826V107.053C579.514 120.494 589.368 131.665 603.241 131.665C617.113 131.665 626.649 120.721 626.649 107.28" fill="white"/>
<path d="M694.991 67.9098H677.758V146.264H694.991V67.9098Z" fill="white"/>
<path d="M754.409 83.8031H730.592V67.9098H795.482V83.8031H771.665V146.241H754.409V83.8031Z" fill="white"/>
<path d="M161.067 336.484H178.3V399.171H217.352V414.838H161.067V336.484Z" fill="white"/>
<path d="M273.864 336.484H256.631V414.838H273.864V336.484Z" fill="white"/>
<path d="M313.597 336.484H349.925C358.87 336.484 365.818 338.959 370.359 343.409C372.124 345.141 373.513 347.218 374.439 349.512C375.365 351.805 375.808 354.264 375.74 356.736V356.963C375.845 360.476 374.93 363.943 373.104 366.945C371.279 369.948 368.622 372.356 365.455 373.878C374.537 377.352 380.122 382.597 380.122 393.132V393.359C380.122 407.686 368.474 414.838 350.787 414.838H313.597V336.484ZM346.292 368.157C353.898 368.157 358.711 365.705 358.711 359.87V359.643C358.711 354.511 354.67 351.582 347.359 351.582H330.353V368.134L346.292 368.157ZM350.833 399.716C358.439 399.716 363.025 397.037 363.025 391.202V390.975C363.025 385.708 359.12 382.461 350.265 382.461H330.353V399.694L350.833 399.716Z" fill="white"/>
<path d="M415.496 336.484H451.324C461.291 336.484 469.011 339.276 474.142 344.43C476.418 346.809 478.193 349.62 479.363 352.697C480.533 355.774 481.074 359.055 480.953 362.344V362.571C481.205 367.9 479.7 373.164 476.668 377.553C473.637 381.942 469.247 385.214 464.174 386.865L483.315 414.838H463.175L446.397 389.863H432.774V414.838H415.496V336.484ZM450.143 374.628C458.544 374.628 463.334 370.087 463.334 363.548V363.275C463.334 355.896 458.203 352.082 449.712 352.082H432.592V374.628H450.143Z" fill="white"/>
<path d="M545.367 336.03H561.261L594.864 414.838H576.7L569.639 397.332H536.535L529.361 414.906H511.787L545.367 336.03ZM563.531 382.143L553.132 356.736L542.643 382.052L563.531 382.143Z" fill="white"/>
<path d="M629.079 336.484H664.907C674.875 336.484 682.594 339.276 687.748 344.43C690.024 346.809 691.799 349.62 692.969 352.697C694.139 355.774 694.68 359.055 694.56 362.344V362.571C694.816 367.901 693.312 373.166 690.279 377.556C687.247 381.947 682.856 385.218 677.781 386.865L696.921 414.838H676.6L659.821 389.863H646.199V414.838H628.966L629.079 336.484ZM663.772 374.628C672.173 374.628 676.986 370.087 676.986 363.548V363.275C676.986 355.896 671.832 352.082 663.363 352.082H646.244V374.628H663.772Z" fill="white"/>
<path d="M749.618 383.937L719.489 336.484H739.651L758.337 367.93L777.364 336.484H796.935L766.851 383.596V414.838H749.618V383.937Z" fill="white"/>
<path d="M163.292 202.072H191.81C209.088 202.072 220.985 210.949 220.985 226.093V226.32C220.985 242.827 206.727 251.295 190.356 251.295H169.128V280.585H163.292V202.072ZM190.72 245.846C205.319 245.846 215.195 238.218 215.195 226.547V226.32C215.195 213.855 205.546 207.362 191.401 207.362H169.128V245.96L190.72 245.846Z" fill="white"/>
<path d="M283.99 247.867V202.072H289.825V247.481C289.825 265.985 299.815 276.657 316.413 276.657C332.306 276.657 342.568 267.007 342.568 248.049V202.072H348.381V247.299C348.381 269.845 335.28 281.856 316.185 281.856C297.091 281.856 283.99 269.959 283.99 247.958" fill="white"/>
<path d="M417.449 202.072H449.894C458.749 202.072 465.946 204.66 470.328 209.042C471.958 210.654 473.245 212.579 474.112 214.702C474.978 216.825 475.405 219.101 475.368 221.393V221.62C475.368 232.269 468.398 237.673 462.041 240.261C471.441 242.736 479.773 248.117 479.773 258.992V259.219C479.773 272.343 468.557 280.653 451.597 280.653H417.54L417.449 202.072ZM449.235 238.399C461.019 238.399 469.442 232.678 469.442 222.233V222.006C469.442 213.356 462.381 207.543 449.803 207.543H423.284V238.399H449.235ZM451.824 275.158C465.31 275.158 473.825 268.982 473.825 259.106V258.833C473.825 249.184 465.424 243.576 449.939 243.576H423.284V275.113L451.824 275.158Z" fill="white"/>
<path d="M545.435 201.981H551.27V275.158H597.406V280.539H545.435V201.981Z" fill="white"/>
<path d="M662.182 201.981H656.347V280.539H662.182V201.981Z" fill="white"/>
<path d="M729.774 241.487V241.26C729.774 219.032 746.394 200.641 769.054 200.641C783.085 200.641 791.509 205.795 799.569 213.197L795.414 217.466C788.602 210.836 780.724 205.909 768.917 205.909C750.072 205.909 735.814 221.28 735.814 241.033V241.26C735.814 261.127 750.299 276.611 769.031 276.611C780.383 276.611 788.103 272.229 796.072 264.396L800 268.211C791.69 276.407 782.722 281.833 768.781 281.833C746.349 281.833 729.729 263.987 729.729 241.442" fill="white"/>
<mask id="mask0_29_90" style="mask-type:luminance" maskUnits="userSpaceOnUse" x="92" y="483" width="309" height="94">
<path d="M400.08 483.814H92.9077V576.699H400.08V483.814Z" fill="white"/>
</mask>
<g mask="url(#mask0_29_90)">
<mask id="mask1_29_90" style="mask-type:luminance" maskUnits="userSpaceOnUse" x="92" y="483" width="309" height="94">
<path d="M92.9077 483.814V576.699H307.172L400.08 483.814H92.9077Z" fill="white"/>
</mask>
<g mask="url(#mask1_29_90)">
<path d="M400.08 483.814H92.9077V576.699H400.08V483.814Z" fill="url(#paint0_linear_29_90)"/>
</g>
</g>
<defs>
<linearGradient id="paint0_linear_29_90" x1="387.115" y1="506.315" x2="-23.8398" y2="506.315" gradientUnits="userSpaceOnUse">
<stop stop-color="#95C350"/>
<stop offset="1" stop-color="#719141"/>
</linearGradient>
</defs>
</svg>
